# xmcd CD database file
#
# Track frame offsets:
#	150
#	17083
#	36158
#	58240
#	77582
#	97528
#	118345
#	135814
#	151637
#	167826
#	183636
#	200549
#	217714
#	233384
#	248581
#	264673
#	283423
#	301087
#
# Disc length: 4222 seconds
#
# Revision: 2
# Processed by: cddbd v1.5.2PL0 Copyright (c) Steve Scherf et al.
# Submitted via: CDex 1.51
#
DISCID=e2107c12
DTITLE=Various Artist - MRH136
DYEAR=1900
DGENRE=Blues
TTITLE0=MRH136-01 - Louisa Johnson - Forever Young
TTITLE1=MRH136-02 - Justin Bieber - Love Yourself
TTITLE2=MRH136-03 - Adele - When We Were Young
TTITLE3=MRH136-04 - One Direction - Infinity  
TTITLE4=MRH136-05 - Little Mix Ft Jason Derulo - Secret Love Song
TTITLE5=MRH136-06 - Coldplay - Adventure Of A Lifetime
TTITLE6=MRH136-07 - Robin Schulz Ft Francesco Yates - Sugar
TTITLE7=MRH136-08 - Disclosure Ft Lorde - Magnets
TTITLE8=MRH136-09 - Grace Ft G-Easy - You Don't Own Me
TTITLE9=MRH136-10 - Missy Elliott Ft Pharrell Williams - WTF (Where They From)
TTITLE10=MRH136-11 - Sigma and Rita Ora - Coming Home
TTITLE11=MRH136-12 - Jess Glynne - Take Me Home
TTITLE12=MRH136-13 - Martin Solveig Ft Sam White - Plus 1(+1)
TTITLE13=MRH136-14 - Blinkie - Don't Give Up (On Love)
TTITLE14=MRH136-15 - Justin Bieber - I'll Show You
TTITLE15=MRH136-16 - Weekend, The - In The Night
TTITLE16=MRH136-17 - Thomas Rhett - Die A Happy Man
TTITLE17=MRH136-18 - XA - Renegades
EXTD=
EXTT0=
EXTT1=
EXTT2=
EXTT3=
EXTT4=
EXTT5=
EXTT6=
EXTT7=
EXTT8=
EXTT9=
EXTT10=
EXTT11=
EXTT12=
EXTT13=
EXTT14=
EXTT15=
EXTT16=
EXTT17=
PLAYORDER=
